<svg width="63" height="37" viewBox="0 0 63 37" fill="none" xmlns="http://www.w3.org/2000/svg">
<path d="M40 8H9C7.89543 8 7 8.89543 7 10V33C7 34.1046 7.89543 35 9 35H40C41.1046 35 42 34.1046 42 33V10C42 8.89543 41.1046 8 40 8Z" stroke="#8E6548" stroke-width="3.3" stroke-linecap="round"/>
<path d="M57.3906 10.0729L47.8906 16.4063C47.3342 16.7772 47 17.4017 47 18.0704V23.9925C47 24.6263 47.3003 25.2225 47.8095 25.5997L57.3095 32.6367C58.6295 33.6144 60.5 32.6722 60.5 31.0296V11.737C60.5 10.1396 58.7197 9.18686 57.3906 10.0729Z" stroke="#8E6548" stroke-width="3.3" stroke-linecap="round"/>
<path d="M20 2H2" stroke="#8E6548" stroke-width="3.3" stroke-linecap="round"/>
</svg>
