<svg width="50" height="50" viewBox="0 0 50 50" fill="none" xmlns="http://www.w3.org/2000/svg">
<path d="M41.4153 21.5497H37.4933C37.2475 21.5497 37.0092 21.4657 36.8177 21.3117C36.6262 21.1577 36.4932 20.9428 36.4406 20.7028L36.002 18.6728C35.417 18.4165 34.8623 18.0959 34.3481 17.7171L32.3688 18.3474C32.1345 18.4221 31.8817 18.4144 31.6524 18.3256C31.4231 18.2368 31.231 18.0723 31.1081 17.8593L29.1428 14.4641C29.0212 14.2509 28.9755 14.0028 29.0133 13.7603C29.0511 13.5178 29.1701 13.2952 29.3507 13.1291L30.8862 11.7284C30.8163 11.0939 30.8163 10.4536 30.8862 9.81911L29.3507 8.42161C29.1698 8.25543 29.0507 8.03272 29.0129 7.78997C28.9751 7.54722 29.0209 7.29884 29.1428 7.08553L31.1038 3.68823C31.2267 3.47522 31.4187 3.31067 31.6481 3.22188C31.8774 3.13309 32.1302 3.12541 32.3645 3.20013L34.3438 3.83045C34.6067 3.63651 34.8804 3.45549 35.1627 3.29171C35.4353 3.13871 35.7154 2.99971 36.002 2.8758L36.4417 0.847979C36.494 0.607914 36.6268 0.392945 36.8181 0.238715C37.0093 0.0844853 37.2476 0.000258559 37.4933 0H41.4153C41.661 0.000258559 41.8993 0.0844853 42.0905 0.238715C42.2818 0.392945 42.4146 0.607914 42.4669 0.847979L42.9109 2.87688C43.4951 3.13469 44.0497 3.45514 44.5648 3.83261L46.5452 3.20228C46.7794 3.12784 47.0319 3.13566 47.261 3.22443C47.4901 3.31321 47.682 3.47761 47.8048 3.69038L49.7658 7.08769C50.0158 7.52622 49.9296 8.08113 49.5579 8.42269L48.0225 9.82342C48.0923 10.4579 48.0923 11.0982 48.0225 11.7327L49.5579 13.1334C49.9296 13.4761 50.0158 14.0299 49.7658 14.4684L47.8048 17.8658C47.6819 18.0788 47.4899 18.2433 47.2605 18.3321C47.0312 18.4209 46.7784 18.4286 46.5441 18.3539L44.5648 17.7235C44.051 18.1021 43.4966 18.4223 42.912 18.6782L42.4669 20.7028C42.4144 20.9426 42.2815 21.1574 42.0902 21.3114C41.899 21.4654 41.6609 21.5495 41.4153 21.5497ZM39.45 6.4649C38.3069 6.4649 37.2107 6.91898 36.4024 7.72725C35.5941 8.53552 35.1401 9.63177 35.1401 10.7748C35.1401 11.9179 35.5941 13.0141 36.4024 13.8224C37.2107 14.6307 38.3069 15.0848 39.45 15.0848C40.5931 15.0848 41.6893 14.6307 42.4976 13.8224C43.3058 13.0141 43.7599 11.9179 43.7599 10.7748C43.7599 9.63177 43.3058 8.53552 42.4976 7.72725C41.6893 6.91898 40.5931 6.4649 39.45 6.4649Z" fill="#8E6548"/>
<path d="M24 7.5H4C2.89543 7.5 2 8.39543 2 9.5V35.5C2 36.6046 2.89543 37.5 4 37.5H43C44.1046 37.5 45 36.6046 45 35.5V25" stroke="#8E6548" stroke-width="3.3" stroke-linecap="round"/>
<path d="M19 37.5V48M29 48V37.5" stroke="#8E6548" stroke-width="3.3" stroke-linecap="round"/>
<path d="M11 48H36" stroke="#8E6548" stroke-width="3.3" stroke-linecap="round"/>
</svg>
