<svg width="40" height="40" viewBox="0 0 40 40" fill="none" xmlns="http://www.w3.org/2000/svg">
<path d="M23.4797 6.45531L23.6874 6.02248L24.8471 3.60598C24.8473 3.60568 24.8474 3.60538 24.8476 3.60508C25.1192 3.03784 25.6555 2.51231 26.4292 2.3798C27.2036 2.24719 27.8846 2.56488 28.3296 3.00999L36.9862 11.6676C36.987 11.6685 36.9879 11.6694 36.9888 11.6702C37.4376 12.1174 37.7522 12.7992 37.6203 13.5707C37.4884 14.342 36.9656 14.88 36.396 15.1532L23.4797 6.45531ZM23.4797 6.45531L15.5191 7.11894L15.4856 7.12173L15.4522 7.12588L15.4507 7.12607C15.1843 7.15925 14.6104 7.23073 14.0763 7.56595C13.4391 7.96579 13.0747 8.58392 12.9214 9.27681L12.8824 9.45291V9.46307C11.8335 14.3698 9.56534 19.2673 7.51041 22.9946C6.47712 24.8689 5.50998 26.4254 4.80284 27.5109C4.44951 28.0534 4.16174 28.4772 3.96392 28.7631C3.86503 28.9061 3.78867 29.0145 3.7379 29.0861C3.71252 29.1218 3.69353 29.1483 3.68134 29.1653L3.66818 29.1836L3.6655 29.1873L3.66548 29.1873L3.66524 29.1876L3.66516 29.1877L2.83647 30.3274L3.8332 31.3243L5.56918 33.0605L5.77247 33.2638L6.73598 34.2274L6.93898 34.4305L8.67497 36.1667L9.67194 37.1637L10.8118 36.3347L10.8119 36.3346L10.8123 36.3344L10.8123 36.3344L10.816 36.3317L10.8342 36.3185C10.8512 36.3063 10.8777 36.2874 10.9135 36.262C10.985 36.2112 11.0934 36.1348 11.2364 36.0359C11.5223 35.8381 11.9461 35.5503 12.4884 35.1969C13.5738 34.4897 15.1301 33.5224 17.0041 32.489C20.731 30.4338 25.6277 28.1654 30.5338 27.1164H30.5417L30.7158 27.0784C31.4099 26.9267 32.03 26.5627 32.4309 25.9238C32.7663 25.3892 32.8376 24.8143 32.8707 24.5474L32.8709 24.5457L32.875 24.5127L32.8778 24.4796L33.5409 16.5237L33.978 16.3139L36.3942 15.154L23.4797 6.45531ZM23.6285 8.09456L23.5766 7.47137L23.9142 7.80904L23.6285 8.09456ZM18.8444 22.2991L20.4884 22.1591L18.8444 22.2991C18.8695 22.5945 18.7894 22.8893 18.6183 23.1313C18.4472 23.3734 18.196 23.547 17.9093 23.6217C17.6226 23.6964 17.3187 23.6674 17.0513 23.5396L16.6506 23.3482L16.4592 22.9474C16.3314 22.6799 16.3023 22.3758 16.3771 22.0889C16.4518 21.802 16.6255 21.5508 16.8675 21.3797C17.1094 21.2086 17.404 21.1285 17.6993 21.1537C17.9945 21.1788 18.2713 21.3075 18.4809 21.5171C18.6905 21.7267 18.8192 22.0037 18.8444 22.2991Z" stroke="#8E6548" stroke-width="3.3"/>
</svg>
