<svg width="39" height="51" viewBox="0 0 39 51" fill="none" xmlns="http://www.w3.org/2000/svg">
<path d="M30.4153 21.5497H26.4933C26.2475 21.5497 26.0092 21.4657 25.8177 21.3117C25.6262 21.1577 25.4932 20.9428 25.4406 20.7028L25.002 18.6728C24.417 18.4165 23.8623 18.0959 23.3481 17.7171L21.3688 18.3474C21.1345 18.4221 20.8817 18.4144 20.6524 18.3256C20.4231 18.2368 20.231 18.0723 20.1081 17.8593L18.1428 14.4641C18.0212 14.2509 17.9755 14.0028 18.0133 13.7603C18.0511 13.5178 18.1701 13.2952 18.3507 13.1291L19.8862 11.7284C19.8163 11.0939 19.8163 10.4536 19.8862 9.81911L18.3507 8.42161C18.1698 8.25543 18.0507 8.03272 18.0129 7.78997C17.9751 7.54722 18.0209 7.29884 18.1428 7.08553L20.1038 3.68823C20.2267 3.47522 20.4187 3.31067 20.6481 3.22188C20.8774 3.13309 21.1302 3.12541 21.3645 3.20013L23.3438 3.83045C23.6067 3.63651 23.8804 3.45549 24.1627 3.29171C24.4353 3.13871 24.7154 2.99971 25.002 2.8758L25.4417 0.847979C25.494 0.607914 25.6268 0.392945 25.8181 0.238715C26.0093 0.0844853 26.2476 0.000258559 26.4933 0H30.4153C30.661 0.000258559 30.8993 0.0844853 31.0905 0.238715C31.2818 0.392945 31.4146 0.607914 31.4669 0.847979L31.9109 2.87688C32.4951 3.13469 33.0497 3.45514 33.5648 3.83261L35.5452 3.20228C35.7794 3.12784 36.0319 3.13566 36.261 3.22443C36.4901 3.31321 36.682 3.47761 36.8048 3.69038L38.7658 7.08769C39.0158 7.52622 38.9296 8.08113 38.5579 8.42269L37.0225 9.82342C37.0923 10.4579 37.0923 11.0982 37.0225 11.7327L38.5579 13.1334C38.9296 13.4761 39.0158 14.0299 38.7658 14.4684L36.8048 17.8658C36.6819 18.0788 36.4899 18.2433 36.2605 18.3321C36.0312 18.4209 35.7784 18.4286 35.5441 18.3539L33.5648 17.7235C33.051 18.1021 32.4966 18.4223 31.912 18.6782L31.4669 20.7028C31.4144 20.9426 31.2815 21.1574 31.0902 21.3114C30.899 21.4654 30.6609 21.5495 30.4153 21.5497ZM28.45 6.4649C27.3069 6.4649 26.2107 6.91898 25.4024 7.72725C24.5941 8.53552 24.1401 9.63177 24.1401 10.7748C24.1401 11.9179 24.5941 13.0141 25.4024 13.8224C26.2107 14.6307 27.3069 15.0848 28.45 15.0848C29.5931 15.0848 30.6893 14.6307 31.4976 13.8224C32.3058 13.0141 32.7599 11.9179 32.7599 10.7748C32.7599 9.63177 32.3058 8.53552 31.4976 7.72725C30.6893 6.91898 29.5931 6.4649 28.45 6.4649Z" fill="#8E6548"/>
<path d="M14 4.56421H4C2.89543 4.56421 2 5.45964 2 6.56421V46.5642C2 47.6688 2.89543 48.5642 4 48.5642H26C27.1046 48.5642 28 47.6688 28 46.5642V26.0642" stroke="#8E6548" stroke-width="3.3" stroke-linecap="round"/>
<path d="M12 43H18" stroke="#8E6548" stroke-width="3.3" stroke-linecap="round"/>
</svg>
