<svg id="visual" viewBox="0 0 300 100" width="300" height="100" xmlns="http://www.w3.org/2000/svg" xmlns:xlink="http://www.w3.org/1999/xlink" version="1.1"><rect x="0" y="0" width="300" height="100" fill="#ffffff"></rect><path d="M0 61L3.5 61C7 61 14 61 21.2 60.2C28.3 59.3 35.7 57.7 42.8 58.3C50 59 57 62 64.2 62.3C71.3 62.7 78.7 60.3 85.8 60.5C93 60.7 100 63.3 107.2 64C114.3 64.7 121.7 63.3 128.8 63.3C136 63.3 143 64.7 150 64.3C157 64 164 62 171.2 60.3C178.3 58.7 185.7 57.3 192.8 58.3C200 59.3 207 62.7 214.2 63C221.3 63.3 228.7 60.7 235.8 59.8C243 59 250 60 257.2 59.8C264.3 59.7 271.7 58.3 278.8 58.7C286 59 293 61 296.5 62L300 63L300 101L296.5 101C293 101 286 101 278.8 101C271.7 101 264.3 101 257.2 101C250 101 243 101 235.8 101C228.7 101 221.3 101 214.2 101C207 101 200 101 192.8 101C185.7 101 178.3 101 171.2 101C164 101 157 101 150 101C143 101 136 101 128.8 101C121.7 101 114.3 101 107.2 101C100 101 93 101 85.8 101C78.7 101 71.3 101 64.2 101C57 101 50 101 42.8 101C35.7 101 28.3 101 21.2 101C14 101 7 101 3.5 101L0 101Z" fill="#ad876b"></path><path d="M0 67L3.5 68.3C7 69.7 14 72.3 21.2 72.2C28.3 72 35.7 69 42.8 68.8C50 68.7 57 71.3 64.2 72.7C71.3 74 78.7 74 85.8 73C93 72 100 70 107.2 69C114.3 68 121.7 68 128.8 68.8C136 69.7 143 71.3 150 72.3C157 73.3 164 73.7 171.2 73.8C178.3 74 185.7 74 192.8 73.2C200 72.3 207 70.7 214.2 69.2C221.3 67.7 228.7 66.3 235.8 67.2C243 68 250 71 257.2 72.2C264.3 73.3 271.7 72.7 278.8 72.2C286 71.7 293 71.3 296.5 71.2L300 71L300 101L296.5 101C293 101 286 101 278.8 101C271.7 101 264.3 101 257.2 101C250 101 243 101 235.8 101C228.7 101 221.3 101 214.2 101C207 101 200 101 192.8 101C185.7 101 178.3 101 171.2 101C164 101 157 101 150 101C143 101 136 101 128.8 101C121.7 101 114.3 101 107.2 101C100 101 93 101 85.8 101C78.7 101 71.3 101 64.2 101C57 101 50 101 42.8 101C35.7 101 28.3 101 21.2 101C14 101 7 101 3.5 101L0 101Z" fill="#a27c5f"></path><path d="M0 78L3.5 78.8C7 79.7 14 81.3 21.2 81.8C28.3 82.3 35.7 81.7 42.8 80.5C50 79.3 57 77.7 64.2 77.2C71.3 76.7 78.7 77.3 85.8 78.3C93 79.3 100 80.7 107.2 81C114.3 81.3 121.7 80.7 128.8 80.2C136 79.7 143 79.3 150 79.3C157 79.3 164 79.7 171.2 80.2C178.3 80.7 185.7 81.3 192.8 80.5C200 79.7 207 77.3 214.2 76.3C221.3 75.3 228.7 75.7 235.8 76.2C243 76.7 250 77.3 257.2 78.2C264.3 79 271.7 80 278.8 79.7C286 79.3 293 77.7 296.5 76.8L300 76L300 101L296.5 101C293 101 286 101 278.8 101C271.7 101 264.3 101 257.2 101C250 101 243 101 235.8 101C228.7 101 221.3 101 214.2 101C207 101 200 101 192.8 101C185.7 101 178.3 101 171.2 101C164 101 157 101 150 101C143 101 136 101 128.8 101C121.7 101 114.3 101 107.2 101C100 101 93 101 85.8 101C78.7 101 71.3 101 64.2 101C57 101 50 101 42.8 101C35.7 101 28.3 101 21.2 101C14 101 7 101 3.5 101L0 101Z" fill="#987053"></path><path d="M0 94L3.5 92.5C7 91 14 88 21.2 87.7C28.3 87.3 35.7 89.7 42.8 90.2C50 90.7 57 89.3 64.2 89C71.3 88.7 78.7 89.3 85.8 88.8C93 88.3 100 86.7 107.2 86C114.3 85.3 121.7 85.7 128.8 86.5C136 87.3 143 88.7 150 89.3C157 90 164 90 171.2 89.3C178.3 88.7 185.7 87.3 192.8 87.3C200 87.3 207 88.7 214.2 89.8C221.3 91 228.7 92 235.8 91.3C243 90.7 250 88.3 257.2 87.7C264.3 87 271.7 88 278.8 88C286 88 293 87 296.5 86.5L300 86L300 101L296.5 101C293 101 286 101 278.8 101C271.7 101 264.3 101 257.2 101C250 101 243 101 235.8 101C228.7 101 221.3 101 214.2 101C207 101 200 101 192.8 101C185.7 101 178.3 101 171.2 101C164 101 157 101 150 101C143 101 136 101 128.8 101C121.7 101 114.3 101 107.2 101C100 101 93 101 85.8 101C78.7 101 71.3 101 64.2 101C57 101 50 101 42.8 101C35.7 101 28.3 101 21.2 101C14 101 7 101 3.5 101L0 101Z" fill="#8e6548"></path></svg>