<svg id="visual" viewBox="0 0 900 600" width="900" height="600" xmlns="http://www.w3.org/2000/svg" xmlns:xlink="http://www.w3.org/1999/xlink" version="1.1"><rect x="0" y="0" width="900" height="600" fill="#ffffff"></rect><path d="M0 418L10.7 417.5C21.3 417 42.7 416 64.2 411.7C85.7 407.3 107.3 399.7 128.8 403C150.3 406.3 171.7 420.7 193 422C214.3 423.3 235.7 411.7 257 412.3C278.3 413 299.7 426 321.2 429.8C342.7 433.7 364.3 428.3 385.8 428.8C407.3 429.3 428.7 435.7 450 433.5C471.3 431.3 492.7 420.7 514.2 412.2C535.7 403.7 557.3 397.3 578.8 402.5C600.3 407.7 621.7 424.3 643 426.3C664.3 428.3 685.7 415.7 707 411.2C728.3 406.7 749.7 410.3 771.2 409.5C792.7 408.7 814.3 403.3 835.8 405.8C857.3 408.3 878.7 418.7 889.3 423.8L900 429L900 601L889.3 601C878.7 601 857.3 601 835.8 601C814.3 601 792.7 601 771.2 601C749.7 601 728.3 601 707 601C685.7 601 664.3 601 643 601C621.7 601 600.3 601 578.8 601C557.3 601 535.7 601 514.2 601C492.7 601 471.3 601 450 601C428.7 601 407.3 601 385.8 601C364.3 601 342.7 601 321.2 601C299.7 601 278.3 601 257 601C235.7 601 214.3 601 193 601C171.7 601 150.3 601 128.8 601C107.3 601 85.7 601 64.2 601C42.7 601 21.3 601 10.7 601L0 601Z" fill="#ad876b"></path><path d="M0 444L10.7 450.5C21.3 457 42.7 470 64.2 469.8C85.7 469.7 107.3 456.3 128.8 455.7C150.3 455 171.7 467 193 473.2C214.3 479.3 235.7 479.7 257 474.5C278.3 469.3 299.7 458.7 321.2 454C342.7 449.3 364.3 450.7 385.8 455.3C407.3 460 428.7 468 450 472.8C471.3 477.7 492.7 479.3 514.2 480.2C535.7 481 557.3 481 578.8 477C600.3 473 621.7 465 643 457.3C664.3 449.7 685.7 442.3 707 445.8C728.3 449.3 749.7 463.7 771.2 469.2C792.7 474.7 814.3 471.3 835.8 468.8C857.3 466.3 878.7 464.7 889.3 463.8L900 463L900 601L889.3 601C878.7 601 857.3 601 835.8 601C814.3 601 792.7 601 771.2 601C749.7 601 728.3 601 707 601C685.7 601 664.3 601 643 601C621.7 601 600.3 601 578.8 601C557.3 601 535.7 601 514.2 601C492.7 601 471.3 601 450 601C428.7 601 407.3 601 385.8 601C364.3 601 342.7 601 321.2 601C299.7 601 278.3 601 257 601C235.7 601 214.3 601 193 601C171.7 601 150.3 601 128.8 601C107.3 601 85.7 601 64.2 601C42.7 601 21.3 601 10.7 601L0 601Z" fill="#a27c5f"></path><path d="M0 497L10.7 501C21.3 505 42.7 513 64.2 516C85.7 519 107.3 517 128.8 511.5C150.3 506 171.7 497 193 494.5C214.3 492 235.7 496 257 500.5C278.3 505 299.7 510 321.2 511.5C342.7 513 364.3 511 385.8 509.3C407.3 507.7 428.7 506.3 450 505.8C471.3 505.3 492.7 505.7 514.2 507.8C535.7 510 557.3 514 578.8 510C600.3 506 621.7 494 643 489.3C664.3 484.7 685.7 487.3 707 490.2C728.3 493 749.7 496 771.2 499.3C792.7 502.7 814.3 506.3 835.8 505C857.3 503.7 878.7 497.3 889.3 494.2L900 491L900 601L889.3 601C878.7 601 857.3 601 835.8 601C814.3 601 792.7 601 771.2 601C749.7 601 728.3 601 707 601C685.7 601 664.3 601 643 601C621.7 601 600.3 601 578.8 601C557.3 601 535.7 601 514.2 601C492.7 601 471.3 601 450 601C428.7 601 407.3 601 385.8 601C364.3 601 342.7 601 321.2 601C299.7 601 278.3 601 257 601C235.7 601 214.3 601 193 601C171.7 601 150.3 601 128.8 601C107.3 601 85.7 601 64.2 601C42.7 601 21.3 601 10.7 601L0 601Z" fill="#987053"></path><path d="M0 573L10.7 565.8C21.3 558.7 42.7 544.3 64.2 543C85.7 541.7 107.3 553.3 128.8 556.2C150.3 559 171.7 553 193 551.2C214.3 549.3 235.7 551.7 257 549C278.3 546.3 299.7 538.7 321.2 536.2C342.7 533.7 364.3 536.3 385.8 540.5C407.3 544.7 428.7 550.3 450 553C471.3 555.7 492.7 555.3 514.2 552C535.7 548.7 557.3 542.3 578.8 542.7C600.3 543 621.7 550 643 555.5C664.3 561 685.7 565 707 561.5C728.3 558 749.7 547 771.2 544C792.7 541 814.3 546 835.8 545.8C857.3 545.7 878.7 540.3 889.3 537.7L900 535L900 601L889.3 601C878.7 601 857.3 601 835.8 601C814.3 601 792.7 601 771.2 601C749.7 601 728.3 601 707 601C685.7 601 664.3 601 643 601C621.7 601 600.3 601 578.8 601C557.3 601 535.7 601 514.2 601C492.7 601 471.3 601 450 601C428.7 601 407.3 601 385.8 601C364.3 601 342.7 601 321.2 601C299.7 601 278.3 601 257 601C235.7 601 214.3 601 193 601C171.7 601 150.3 601 128.8 601C107.3 601 85.7 601 64.2 601C42.7 601 21.3 601 10.7 601L0 601Z" fill="#8e6548"></path></svg>