<svg width="5636" height="184" viewBox="0 0 5636 184" fill="none" xmlns="http://www.w3.org/2000/svg">
<path fill-rule="evenodd" clip-rule="evenodd" d="M2818 0.0773592H2857.92C2895.5 0.0773592 2975.34 0.0773597 3052.83 15.4042C3130.33 30.7311 3210.17 61.3849 3287.67 80.5435C3365.16 99.7021 3445.01 107.366 3522.5 95.8704C3600 84.3752 3679.84 53.7215 3757.33 30.7311C3834.83 7.7408 3914.67 -7.58608 3992.17 3.90908C4069.66 15.4042 4149.51 53.7215 4227 69.0484C4304.5 84.3752 4384.34 76.7118 4461.83 65.2166C4539.33 53.7215 4619.17 38.3946 4696.67 46.058C4774.16 53.7215 4854.01 84.3752 4931.5 84.3752C5009 84.3752 5088.84 53.7215 5166.33 53.7215C5243.83 53.7215 5323.67 84.3752 5401.17 88.207C5478.66 92.0387 5558.51 69.0484 5596.08 57.5532L5636 46.058V184H5596.08C5558.51 184 5478.66 184 5401.17 184C5323.67 184 5243.83 184 5166.33 184C5088.84 184 5009 184 4931.5 184C4854.01 184 4774.16 184 4696.67 184C4619.17 184 4539.33 184 4461.83 184C4384.34 184 4304.5 184 4227 184C4149.51 184 4069.66 184 3992.17 184C3914.67 184 3834.83 184 3757.33 184C3679.84 184 3600 184 3522.5 184C3445.01 184 3365.16 184 3287.67 184C3210.17 184 3130.33 184 3052.83 184C2975.34 184 2895.5 184 2857.92 184H2818V0.0773592Z" fill="url(#paint0_linear_124_102)"/>
<path fill-rule="evenodd" clip-rule="evenodd" d="M2818 0.0773592H2778.08C2740.5 0.0773592 2660.66 0.0773597 2583.17 15.4042C2505.67 30.7311 2425.83 61.3849 2348.33 80.5435C2270.84 99.7021 2190.99 107.366 2113.5 95.8704C2036 84.3752 1956.16 53.7215 1878.67 30.7311C1801.17 7.7408 1721.33 -7.58608 1643.83 3.90908C1566.34 15.4042 1486.49 53.7215 1409 69.0484C1331.5 84.3752 1251.66 76.7118 1174.17 65.2166C1096.67 53.7215 1016.83 38.3946 939.333 46.058C861.838 53.7215 781.995 84.3752 704.5 84.3752C627.005 84.3752 547.162 53.7215 469.667 53.7215C392.172 53.7215 312.328 84.3752 234.833 88.207C157.338 92.0387 77.495 69.0484 39.9216 57.5532L-3.05176e-05 46.058V184H39.9216C77.495 184 157.338 184 234.833 184C312.328 184 392.172 184 469.667 184C547.162 184 627.005 184 704.5 184C781.995 184 861.838 184 939.333 184C1016.83 184 1096.67 184 1174.17 184C1251.66 184 1331.5 184 1409 184C1486.49 184 1566.34 184 1643.83 184C1721.33 184 1801.17 184 1878.67 184C1956.16 184 2036 184 2113.5 184C2190.99 184 2270.84 184 2348.33 184C2425.83 184 2505.67 184 2583.17 184C2660.66 184 2740.5 184 2778.08 184H2818V0.0773592Z" fill="url(#paint1_linear_124_102)"/>
<defs>
<linearGradient id="paint0_linear_124_102" x1="4227" y1="0" x2="4227" y2="184" gradientUnits="userSpaceOnUse">
<stop stop-color="#AD876B"/>
<stop offset="1" stop-color="#8E6548"/>
</linearGradient>
<linearGradient id="paint1_linear_124_102" x1="1409" y1="0" x2="1409" y2="184" gradientUnits="userSpaceOnUse">
<stop stop-color="#AD876B"/>
<stop offset="1" stop-color="#8E6548"/>
</linearGradient>
</defs>
</svg>
