<svg id="visual" viewBox="0 0 300 100" width="300" height="100" xmlns="http://www.w3.org/2000/svg" xmlns:xlink="http://www.w3.org/1999/xlink" version="1.1"><rect x="0" y="0" width="300" height="100" fill="#ffffff"></rect><path d="M0 23L3.5 22.8C7 22.7 14 22.3 21.2 20.7C28.3 19 35.7 16 42.8 17.5C50 19 57 25 64.2 25.5C71.3 26 78.7 21 85.8 21.3C93 21.7 100 27.3 107.2 28.8C114.3 30.3 121.7 27.7 128.8 27.7C136 27.7 143 30.3 150 29.5C157 28.7 164 24.3 171.2 20.8C178.3 17.3 185.7 14.7 192.8 16.8C200 19 207 26 214.2 26.8C221.3 27.7 228.7 22.3 235.8 20.5C243 18.7 250 20.3 257.2 20C264.3 19.7 271.7 17.3 278.8 18.3C286 19.3 293 23.7 296.5 25.8L300 28L300 101L296.5 101C293 101 286 101 278.8 101C271.7 101 264.3 101 257.2 101C250 101 243 101 235.8 101C228.7 101 221.3 101 214.2 101C207 101 200 101 192.8 101C185.7 101 178.3 101 171.2 101C164 101 157 101 150 101C143 101 136 101 128.8 101C121.7 101 114.3 101 107.2 101C100 101 93 101 85.8 101C78.7 101 71.3 101 64.2 101C57 101 50 101 42.8 101C35.7 101 28.3 101 21.2 101C14 101 7 101 3.5 101L0 101Z" fill="#ad876b"></path><path d="M0 34L3.5 36.8C7 39.7 14 45.3 21.2 45.3C28.3 45.3 35.7 39.7 42.8 39.3C50 39 57 44 64.2 46.5C71.3 49 78.7 49 85.8 46.8C93 44.7 100 40.3 107.2 38.5C114.3 36.7 121.7 37.3 128.8 39.3C136 41.3 143 44.7 150 46.7C157 48.7 164 49.3 171.2 49.7C178.3 50 185.7 50 192.8 48.3C200 46.7 207 43.3 214.2 40.2C221.3 37 228.7 34 235.8 35.5C243 37 250 43 257.2 45.2C264.3 47.3 271.7 45.7 278.8 44.5C286 43.3 293 42.7 296.5 42.3L300 42L300 101L296.5 101C293 101 286 101 278.8 101C271.7 101 264.3 101 257.2 101C250 101 243 101 235.8 101C228.7 101 221.3 101 214.2 101C207 101 200 101 192.8 101C185.7 101 178.3 101 171.2 101C164 101 157 101 150 101C143 101 136 101 128.8 101C121.7 101 114.3 101 107.2 101C100 101 93 101 85.8 101C78.7 101 71.3 101 64.2 101C57 101 50 101 42.8 101C35.7 101 28.3 101 21.2 101C14 101 7 101 3.5 101L0 101Z" fill="#a27c5f"></path><path d="M0 56L3.5 57.8C7 59.7 14 63.3 21.2 64.7C28.3 66 35.7 65 42.8 62.7C50 60.3 57 56.7 64.2 55.7C71.3 54.7 78.7 56.3 85.8 58.2C93 60 100 62 107.2 62.5C114.3 63 121.7 62 128.8 61.3C136 60.7 143 60.3 150 60.2C157 60 164 60 171.2 60.8C178.3 61.7 185.7 63.3 192.8 61.7C200 60 207 55 214.2 53.2C221.3 51.3 228.7 52.7 235.8 53.8C243 55 250 56 257.2 57.3C264.3 58.7 271.7 60.3 278.8 59.8C286 59.3 293 56.7 296.5 55.3L300 54L300 101L296.5 101C293 101 286 101 278.8 101C271.7 101 264.3 101 257.2 101C250 101 243 101 235.8 101C228.7 101 221.3 101 214.2 101C207 101 200 101 192.8 101C185.7 101 178.3 101 171.2 101C164 101 157 101 150 101C143 101 136 101 128.8 101C121.7 101 114.3 101 107.2 101C100 101 93 101 85.8 101C78.7 101 71.3 101 64.2 101C57 101 50 101 42.8 101C35.7 101 28.3 101 21.2 101C14 101 7 101 3.5 101L0 101Z" fill="#987053"></path><path d="M0 88L3.5 85C7 82 14 76 21.2 75.5C28.3 75 35.7 80 42.8 81.2C50 82.3 57 79.7 64.2 78.8C71.3 78 78.7 79 85.8 78C93 77 100 74 107.2 73C114.3 72 121.7 73 128.8 74.7C136 76.3 143 78.7 150 79.8C157 81 164 81 171.2 79.7C178.3 78.3 185.7 75.7 192.8 75.8C200 76 207 79 214.2 81.2C221.3 83.3 228.7 84.7 235.8 83.2C243 81.7 250 77.3 257.2 76.2C264.3 75 271.7 77 278.8 76.8C286 76.7 293 74.3 296.5 73.2L300 72L300 101L296.5 101C293 101 286 101 278.8 101C271.7 101 264.3 101 257.2 101C250 101 243 101 235.8 101C228.7 101 221.3 101 214.2 101C207 101 200 101 192.8 101C185.7 101 178.3 101 171.2 101C164 101 157 101 150 101C143 101 136 101 128.8 101C121.7 101 114.3 101 107.2 101C100 101 93 101 85.8 101C78.7 101 71.3 101 64.2 101C57 101 50 101 42.8 101C35.7 101 28.3 101 21.2 101C14 101 7 101 3.5 101L0 101Z" fill="#8e6548"></path></svg>